<?xml version="1.0" encoding="utf-8"?>
<!-- Generator: Adobe Illustrator 22.0.0, SVG Export Plug-In . SVG Version: 6.00 Build 0)  -->
<svg version="1.1" id="Layer_1" xmlns="http://www.w3.org/2000/svg" xmlns:xlink="http://www.w3.org/1999/xlink" x="0px" y="0px"
	 viewBox="0 0 1366 768" style="enable-background:new 0 0 1366 768;" xml:space="preserve">
<style type="text/css">
	.st0{fill:#346766;stroke:#346766;stroke-width:3;stroke-miterlimit:10;}
	.st1{fill:#FF0000;}
	.st2{fill:#FF0000;stroke:#FFFFFF;stroke-width:2;stroke-miterlimit:10;}
	.st3{fill:#3A0BFF;}
	.st4{fill:none;stroke:#FFFFFF;stroke-width:2;stroke-miterlimit:10;}
	.st5{fill:#FFA80D;}
	.st6{fill:#284F4F;}
</style>
<g>
	<path class="st0" d="M472.8,306.3c0,8-0.8,14-2.3,17.8c-1.5,3.8-4.1,5.7-7.8,5.7c0,0-33.7,3.9-42.5,10.7
		c-31.2,24.5-14.6,100.2-14.6,130.2v157.9c0,3.8-2.3,6.5-6.8,8c-4.5,1.6-12.1,2.3-22.8,2.3c-10.4,0-17.9-0.8-22.5-2.3
		c-4.5-1.6-6.8-4.2-6.8-8c0,0,30.2-256.4,3.7-288.1c-27.9-33.2-167.7-10.7-167.7-10.7c-3.5,0-6-1.9-7.7-5.7
		c-1.6-3.8-2.4-9.7-2.4-17.8c0-8,0.8-14,2.4-17.8c1.6-3.8,4.2-5.7,7.7-5.7c0,0,172.4-13.5,229.7-8.2c49.1,4.5,50.2,8.2,50.2,8.2
		c3.7,0,6.3,1.9,7.8,5.7C472.1,292.4,472.8,298.3,472.8,306.3z"/>
	<path class="st0" d="M566.6,482.4c0,3.8-2.3,6.5-6.9,8c-4.6,1.6-12.4,2.3-23.2,2.3c-10.9,0-18.6-0.8-23-2.3c-4.5-1.6-6.7-4.2-6.7-8
		V291.2c0-3.8,2.2-6.5,6.7-8c4.5-1.6,12.2-2.3,23-2.3c10.9,0,18.6,0.8,23.2,2.3c4.6,1.6,6.9,4.2,6.9,8V482.4z"/>
	<path class="st0" d="M865.5,628.6c0,3.8-2.3,6.5-6.9,8c-4.6,1.6-12.4,2.3-23.5,2.3c-11.1,0-19-0.8-23.7-2.3c-4.7-1.6-7.1-4.2-7.1-8
		c0,0,44-227.1-13.1-280.4c-38-35.5-141.7-18.9-182.5-16c-3.9,0.2-6.6-1.3-8.3-4.5c-1.7-3.2-2.5-9-2.5-17.3c0-9.2,0.8-15.4,2.4-18.8
		c1.6-3.4,4.6-5.2,9.2-5.7c32.8-3.4,67.7-5,104.7-5c30.7,0,55.6,2.4,74.8,7.2c19.2,4.8,34.4,12.2,45.6,22.3s19.2,23.6,23.9,40.7
		c4.7,17.1,7.1,41.1,7.1,71.9V628.6z"/>
	<path class="st0" d="M1279.5,628.6c0,4-1.9,6.8-5.7,8.2c-3.8,1.5-10,2.2-18.6,2.2c-9,0-15.4-0.8-19.3-2.3c-3.9-1.6-5.9-4.2-5.9-8
		V442.1c0-25.5-1.6-45-4.7-58.7c-3.1-13.6-8.3-24.3-15.5-32c-7.2-7.7-17.1-13.2-29.7-16.6c-12.6-3.4-29.4-5-50.3-5H1031
		c-3.3,0-5.6-1.8-6.9-5.5c-1.3-3.7-1.9-9.6-1.9-17.6c0-8.3,0.7-14.3,2.1-18.1c1.4-3.8,3.7-5.7,7-5.7l106.8-13.8
		c27.7,0,87.1,2.3,122.5,35.3c51.3,47.7,38.9,101.7,38.9,133.5L1279.5,628.6z"/>
</g>
<path class="st0" d="M961.8,482.4c0,3.8-2.3,6.5-6.9,8c-4.6,1.6-12.4,2.3-23.2,2.3c-10.9,0-18.6-0.8-23-2.3c-4.5-1.6-6.7-4.2-6.7-8
	V291.2c0-3.8,2.2-6.5,6.7-8c4.5-1.6,12.2-2.3,23-2.3c10.9,0,18.6,0.8,23.2,2.3c4.6,1.6,6.9,4.2,6.9,8V482.4z"/>
<path class="st0" d="M1090.6,628.6c0,3.8-2.3,6.5-6.9,8c-4.6,1.6-12.4,2.3-23.2,2.3c-10.9,0-18.6-0.8-23-2.3c-4.5-1.6-6.7-4.2-6.7-8
	V437.5c0-3.8,2.2-6.5,6.7-8c4.5-1.6,12.2-2.3,23-2.3c10.9,0,18.6,0.8,23.2,2.3c4.6,1.6,6.9,4.2,6.9,8V628.6z"/>
<ellipse class="st1" cx="96.1" cy="352.7" rx="53.1" ry="59.2"/>
<path class="st2" d="M105.9,310.2c0,0-50-5-50,41.7"/>
<ellipse transform="matrix(0.3508 -0.9364 0.9364 0.3508 -106.6503 254.1289)" class="st3" cx="130" cy="204" rx="67.1" ry="63.8"/>
<path class="st4" d="M171.2,178.3c0,0-28.4-44.7-73.8-11"/>
<ellipse transform="matrix(0.1189 -0.9929 0.9929 0.1189 104.8543 469.1548)" class="st5" cx="316.8" cy="175.5" rx="78.5" ry="74.9"/>
<path class="st4" d="M274.9,138.2c0,0-37.1,51.2,14.7,90"/>
<path class="st6" d="M1023.7,279.2c0,0,130.8-49.4,216.2-4.1c96.3,51.1,59,216.5,59,216.5s11.9-94.8-1.9-127.1
	c-13.8-32.3-39.3-67-76.7-83.7C1152.4,250.4,1023.7,279.2,1023.7,279.2z"/>
<path class="st6" d="M601.2,281.3c0,0,181.2-41,239.8,12.3c31.4,28.6,27.5,98,27.5,98s0-69.4-47.2-94
	C775.4,273.8,601.2,281.3,601.2,281.3z"/>
<path class="st6" d="M170.7,279.2c0,0,182.9-27.4,247.6-24.5c55.6,2.5,64.9,30.2,59,61.3c-6.2,32,12.4-25.8-37.3-38.3
	C388.9,264.9,170.7,279.2,170.7,279.2z"/>
<path class="st6" d="M524.3,275.1c0,0,44.4-6.1,48.3,14.3"/>
<path class="st6" d="M919.8,274.9c0,0,44-6.2,48,14.2"/>
</svg>
